/* XPM */
static char * chest_xpm[] = {
"96 96 6 1",
" 	c #999694",
".	c #202020",
"+	c #9C9022",
"@	c #995429",
"#	c #955227",
"$	c #945127",
"                                                                                                ",
"                                                                                                ",
"                                                                                                ",
"                                                                                                ",
"                                                                                                ",
"                                                                                                ",
"                                                                                                ",
"                                                                                                ",
"                                                                                                ",
"                                                                                                ",
"                                                                                                ",
"                                                                                                ",
"                                                                                                ",
"                                                                                                ",
"                                                                                                ",
"                                                                                                ",
"                                                                                                ",
"                                                                                                ",
"                                                                                                ",
"                                                                                                ",
"                                                                                                ",
"            ........................................................................            ",
"            ........................................................................            ",
"            ........................................................................            ",
"            ...+++...@@@@@@@@@@@@@@@@@@@@@@@@@@@@@@@@@@@@@@@@@@@@@@@@@@@@@@...+++...            ",
"            ...+++...@@@@@@@@@@@@@@@@@@@@@@@@@@@@@@@@@@@@@@@@@@@@@@@@@@@@@@...+++...            ",
"            ...+++...@@@@@@@@@@@@@@@@@@@@@@@@@@@@@@@@@@@@@@@@@@@@@@@@@@@@@@...+++...            ",
"            ...+++...@@@@@@@@@@@@@@@@@@@@@@@@@@@@@@@@@@@@@@@@@@@@@@@@@@@@@@...+++...            ",
"            ...+++...@@@@@@@@@@@@@@@@@@@@@@@@@@@@@@@@@@@@@@@@@@@@@@@@@@@@@@...+++...            ",
"            ...+++...@@@@@@@@@@@@@@@@@@@@@@@@@@@@@@@@@@@@@@@@@@@@@@@@@@@@@@...+++...            ",
"            ...+++...######################################################...+++...            ",
"            ...+++...######################################################...+++...            ",
"            ...+++...######################################################...+++...            ",
"            ...+++...######################################################...+++...            ",
"            ...+++...######################################################...+++...            ",
"            ...+++...######################################################...+++...            ",
"            ...+++...@@@@@@@@@@@@@@@@@@@@@@@@@@@@@@@@@@@@@@@@@@@@@@@@@@@@@@...+++...            ",
"            ...+++...@@@@@@@@@@@@@@@@@@@@@@@@@@@@@@@@@@@@@@@@@@@@@@@@@@@@@@...+++...            ",
"            ...+++...@@@@@@@@@@@@@@@@@@@@@@@@@@@@@@@@@@@@@@@@@@@@@@@@@@@@@@...+++...            ",
"            ...+++...@@@@@@@@@@@@@@@@@@@@@@@@@@@@@@@@@@@@@@@@@@@@@@@@@@@@@@...+++...            ",
"            ...+++...@@@@@@@@@@@@@@@@@@@@@@@@@@@@@@@@@@@@@@@@@@@@@@@@@@@@@@...+++...            ",
"            ...+++...@@@@@@@@@@@@@@@@@@@@@@@@@@@@@@@@@@@@@@@@@@@@@@@@@@@@@@...+++...            ",
"            ...+++...@@@@@@@@@@@@@@@@@@@@@@@@......@@@@@@@@@@@@@@@@@@@@@@@@...+++...            ",
"            ...+++...@@@@@@@@@@@@@@@@@@@@@@@@......@@@@@@@@@@@@@@@@@@@@@@@@...+++...            ",
"            ...+++...@@@@@@@@@@@@@@@@@@@@@@@@......@@@@@@@@@@@@@@@@@@@@@@@@...+++...            ",
"            ...+++...........................++++++...........................+++...            ",
"            ...+++...........................++++++...........................+++...            ",
"            ...+++...........................++++++...........................+++...            ",
"            ...+++++++++++++++++++++++++++...++++++...+++++++++++++++++++++++++++...            ",
"            ...+++++++++++++++++++++++++++...++++++...+++++++++++++++++++++++++++...            ",
"            ...+++++++++++++++++++++++++++...++++++...+++++++++++++++++++++++++++...            ",
"            .................................++++++.................................            ",
"            .................................++++++.................................            ",
"            .................................++++++.................................            ",
"            ...+++...$$$$$$$$$$$$$$$$$$$$$...++++++...$$$$$$$$$$$$$$$$$$$$$...+++...            ",
"            ...+++...$$$$$$$$$$$$$$$$$$$$$...++++++...$$$$$$$$$$$$$$$$$$$$$...+++...            ",
"            ...+++...$$$$$$$$$$$$$$$$$$$$$...++++++...$$$$$$$$$$$$$$$$$$$$$...+++...            ",
"            ...+++...@@@@@@@@@@@@@@@@@@@@@$$$......$$$@@@@@@@@@@@@@@@@@@@@@...+++...            ",
"            ...+++...@@@@@@@@@@@@@@@@@@@@@$$$......$$$@@@@@@@@@@@@@@@@@@@@@...+++...            ",
"            ...+++...@@@@@@@@@@@@@@@@@@@@@$$$......$$$@@@@@@@@@@@@@@@@@@@@@...+++...            ",
"            ...+++...@@@@@@@@@@@@@@@@@@@@@@@@$$$$$$@@@@@@@@@@@@@@@@@@@@@@@@...+++...            ",
"            ...+++...@@@@@@@@@@@@@@@@@@@@@@@@$$$$$$@@@@@@@@@@@@@@@@@@@@@@@@...+++...            ",
"            ...+++...@@@@@@@@@@@@@@@@@@@@@@@@$$$$$$@@@@@@@@@@@@@@@@@@@@@@@@...+++...            ",
"            ...+++...@@@@@@@@@@@@@@@@@@@@@@@@@@@@@@@@@@@@@@@@@@@@@@@@@@@@@@...+++...            ",
"            ...+++...@@@@@@@@@@@@@@@@@@@@@@@@@@@@@@@@@@@@@@@@@@@@@@@@@@@@@@...+++...            ",
"            ...+++...@@@@@@@@@@@@@@@@@@@@@@@@@@@@@@@@@@@@@@@@@@@@@@@@@@@@@@...+++...            ",
"            ...+++...@@@@@@@@@@@@@@@@@@@@@@@@@@@@@@@@@@@@@@@@@@@@@@@@@@@@@@...+++...            ",
"            ...+++...@@@@@@@@@@@@@@@@@@@@@@@@@@@@@@@@@@@@@@@@@@@@@@@@@@@@@@...+++...            ",
"            ...+++...@@@@@@@@@@@@@@@@@@@@@@@@@@@@@@@@@@@@@@@@@@@@@@@@@@@@@@...+++...            ",
"            ...+++............................................................+++...            ",
"            ...+++............................................................+++...            ",
"            ...+++............................................................+++...            ",
"            ...++++++++++++++++++++++++++++++++++++++++++++++++++++++++++++++++++...            ",
"            ...++++++++++++++++++++++++++++++++++++++++++++++++++++++++++++++++++...            ",
"            ...++++++++++++++++++++++++++++++++++++++++++++++++++++++++++++++++++...            ",
"            ........................................................................            ",
"            ........................................................................            ",
"            ........................................................................            ",
"                                                                                                ",
"                                                                                                ",
"                                                                                                ",
"                                                                                                ",
"                                                                                                ",
"                                                                                                ",
"                                                                                                ",
"                                                                                                ",
"                                                                                                ",
"                                                                                                ",
"                                                                                                ",
"                                                                                                ",
"                                                                                                ",
"                                                                                                ",
"                                                                                                ",
"                                                                                                ",
"                                                                                                ",
"                                                                                                "};
