/* XPM */
static char * chest_bo_xpm[] = {
"96 96 5 1",
" 	c #999694",
".	c #202020",
"+	c #9C9022",
"@	c #995429",
"#	c #00F2FF",
"                                                                                                ",
"                                                                                                ",
"                                                                                                ",
"                                                                                                ",
"                                                                                                ",
"                                                                                                ",
"                                                                                                ",
"                                                                                                ",
"                                                                                                ",
"                                          ............                                          ",
"                                          ............                                          ",
"                                          ............                                          ",
"                                          ...++++++...                                          ",
"                                          ...++++++...                                          ",
"                                          ...++++++...                                          ",
"            .................................++++++.................................            ",
"            .................................++++++.................................            ",
"            .................................++++++.................................            ",
"            ...+++++++++++++++++++++++++++...++++++...+++++++++++++++++++++++++++...            ",
"            ...+++++++++++++++++++++++++++...++++++...+++++++++++++++++++++++++++...            ",
"            ...+++++++++++++++++++++++++++...++++++...+++++++++++++++++++++++++++...            ",
"            ...+++............................................................+++...            ",
"            ...+++............................................................+++...            ",
"            ...+++............................................................+++...            ",
"            ...+++...@@@@@@@@@@@@@@@@@@@@@@@@@@@@@@@@@@@@@@@@@@@@@@@@@@@@@@...+++...            ",
"            ...+++...@@@@@@@@@@@@@@@@@@@@@@@@@@@@@@@@@@@@@@@@@@@@@@@@@@@@@@...+++...            ",
"            ...+++...@@@@@@@@@@@@@@@@@@@@@@@@@@@@@@@@@@@@@@@@@@@@@@@@@@@@@@...+++...            ",
"            ...+++...@@@@@@@@@@@@@@@@@@@@@@@@@@@@@@@@@@@@@@@@@@@@@@@@@@@@@@...+++...            ",
"            ...+++...@@@@@@@@@@@@@@@@@@@@@@@@@@@@@@@@@@@@@@@@@@@@@@@@@@@@@@...+++...            ",
"            ...+++...@@@@@@@@@@@@@@@@@@@@@@@@@@@@@@@@@@@@@@@@@@@@@@@@@@@@@@...+++...            ",
"            ...+++...@@@@@@@@@@@@#########@@@@@@@@@@@@@@@@@@@@@@@@@@@@@@@@@...+++...            ",
"            ...+++...@@@@@@@@@@@@#########@@@@@@@@@@@@@@@@@@@@@@@@@@@@@@@@@...+++...            ",
"            ...+++...@@@@@@@@@@@@#########@@@@@@@@@@@@@@@@@@@@@@@@@@@@@@@@@...+++...            ",
"            ...+++...@@@@@@#####################@@@@@@@@@############@@@@@@...+++...            ",
"            ...+++...@@@@@@#####################@@@@@@@@@############@@@@@@...+++...            ",
"            ...+++...@@@@@@#####################@@@@@@@@@############@@@@@@...+++...            ",
"            ...+++...@@@################################################@@@...+++...            ",
"            ...+++...@@@################################################@@@...+++...            ",
"            ...+++...@@@################################################@@@...+++...            ",
"            ...+++...######################################################...+++...            ",
"            ...+++...######################################################...+++...            ",
"            ...+++...######################################################...+++...            ",
"            ...+++...######################################################...+++...            ",
"            ...+++...######################################################...+++...            ",
"            ...+++...######################################################...+++...            ",
"            ...+++...######################################################...+++...            ",
"            ...+++...######################################################...+++...            ",
"            ...+++...######################################################...+++...            ",
"            ...+++............................................................+++...            ",
"            ...+++............................................................+++...            ",
"            ...+++............................................................+++...            ",
"            ...++++++++++++++++++++++++++++++++++++++++++++++++++++++++++++++++++...            ",
"            ...++++++++++++++++++++++++++++++++++++++++++++++++++++++++++++++++++...            ",
"            ...++++++++++++++++++++++++++++++++++++++++++++++++++++++++++++++++++...            ",
"            ...+++............................................................+++...            ",
"            ...+++............................................................+++...            ",
"            ...+++............................................................+++...            ",
"            ...+++...@@@@@@@@@@@@@@@@@@@@@@@@@@@@@@@@@@@@@@@@@@@@@@@@@@@@@@...+++...            ",
"            ...+++...@@@@@@@@@@@@@@@@@@@@@@@@@@@@@@@@@@@@@@@@@@@@@@@@@@@@@@...+++...            ",
"            ...+++...@@@@@@@@@@@@@@@@@@@@@@@@@@@@@@@@@@@@@@@@@@@@@@@@@@@@@@...+++...            ",
"            ...+++...@@@@@@@@@@@@@@@@@@@@@@@@@@@@@@@@@@@@@@@@@@@@@@@@@@@@@@...+++...            ",
"            ...+++...@@@@@@@@@@@@@@@@@@@@@@@@@@@@@@@@@@@@@@@@@@@@@@@@@@@@@@...+++...            ",
"            ...+++...@@@@@@@@@@@@@@@@@@@@@@@@@@@@@@@@@@@@@@@@@@@@@@@@@@@@@@...+++...            ",
"            ...+++...@@@@@@@@@@@@@@@@@@@@@@@@@@@@@@@@@@@@@@@@@@@@@@@@@@@@@@...+++...            ",
"            ...+++...@@@@@@@@@@@@@@@@@@@@@@@@@@@@@@@@@@@@@@@@@@@@@@@@@@@@@@...+++...            ",
"            ...+++...@@@@@@@@@@@@@@@@@@@@@@@@@@@@@@@@@@@@@@@@@@@@@@@@@@@@@@...+++...            ",
"            ...+++...@@@@@@@@@@@@@@@@@@@@@@@@@@@@@@@@@@@@@@@@@@@@@@@@@@@@@@...+++...            ",
"            ...+++...@@@@@@@@@@@@@@@@@@@@@@@@@@@@@@@@@@@@@@@@@@@@@@@@@@@@@@...+++...            ",
"            ...+++...@@@@@@@@@@@@@@@@@@@@@@@@@@@@@@@@@@@@@@@@@@@@@@@@@@@@@@...+++...            ",
"            ...+++............................................................+++...            ",
"            ...+++............................................................+++...            ",
"            ...+++............................................................+++...            ",
"      ######...++++++++++++++++++++++++++++++++++++++++++++++++++++++++++++++++++######         ",
"      ######...++++++++++++++++++++++++++++++++++++++++++++++++++++++++++++++++++######         ",
"      ######...++++++++++++++++++++++++++++++++++++++++++++++++++++++++++++++++++######         ",
"############............######...........................######.........######...######         ",
"############............######...........................######.........######...######         ",
"############............######...........................######.........######...######         ",
"######                  ######                  ######   ######         ######      ######      ",
"######                  ######                  ######   ######         ######      ######      ",
"######                  ######                  ######   ######         ######      ######      ",
"                                                ######                              ######      ",
"                                                ######                              ######      ",
"                                                ######                              ######      ",
"                                                                                                ",
"                                                                                                ",
"                                                                                                ",
"                                                                                                ",
"                                                                                                ",
"                                                                                                ",
"                                                                                                ",
"                                                                                                ",
"                                                                                                ",
"                                                                                                ",
"                                                                                                ",
"                                                                                                "};
