/* XPM */
static char * exit_xpm[] = {
"96 96 5 1",
" 	c #999694",
".	c #000000",
"+	c #995429",
"@	c #67E1CD",
"#	c #00F2FF",
"                                                                                                ",
"                                                                                                ",
"                                                                                                ",
"                                                                                                ",
"                                                                                                ",
"                                                                                                ",
"                                                                                                ",
"                                                                                                ",
"                                                                                                ",
"            ........................................................................            ",
"            ........................................................................            ",
"            ........................................................................            ",
"            ........................................................................            ",
"            ........................................................................            ",
"            ........................................................................            ",
"            ......++++++++++++++++++++++++++++++++++++++++++++++++++++++++++++......            ",
"            ......++++++++++++++++++++++++++++++++++++++++++++++++++++++++++++......            ",
"            ......++++++++++++++++++++++++++++++++++++++++++++++++++++++++++++......            ",
"            ......++++++++++++++++++++++++++++++++++++++++++++++++++++++++++++......            ",
"            ......++++++++++++++++++++++++++++++++++++++++++++++++++++++++++++......            ",
"            ......++++++++++++++++++++++++++++++++++++++++++++++++++++++++++++......            ",
"   @@@@@@@@@......++++++++++++++++++++++++++++++++++++++++++++++++++++++++++++......            ",
"   @@@@@@@@@......++++++++++++++++++++++++++++++++++++++++++++++++++++++++++++......            ",
"   @@@@@@@@@......++++++++++++++++++++++++++++++++++++++++++++++++++++++++++++......            ",
"   @@@@@@@@@......++++++++++++++++++++++++++++++++++++++++++++++++++++++++++++......            ",
"   @@@@@@@@@......++++++++++++++++++++++++++++++++++++++++++++++++++++++++++++......            ",
"   @@@@@@@@@......++++++++++++++++++++++++++++++++++++++++++++++++++++++++++++......            ",
"            ......++++++++++++++++++++++++++++++++++++++++++++++++++++++++++++......            ",
"            ......++++++++++++++++++++++++++++++++++++++++++++++++++++++++++++......            ",
"            ......++++++++++++++++++++++++++++++++++++++++++++++++++++++++++++......            ",
"            ......++++++++++++++++++++++++++++++++++++++++++++++++++++++++++++......            ",
"            ......++++++++++++++++++++++++++++++++++++++++++++++++++++++++++++......            ",
"            ......++++++++++++++++++++++++++++++++++++++++++++++++++++++++++++......            ",
"            ......++++++++++++++++++++++++++++++++++++++++++++++++++++++++++++......@@@@@@@@@   ",
"            ......++++++++++++++++++++++++++++++++++++++++++++++++++++++++++++......@@@@@@@@@   ",
"            ......++++++++++++++++++++++++++++++++++++++++++++++++++++++++++++......@@@@@@@@@   ",
"            ......++++++++++++++++++++++++++++++++++++++++++++++++++++++++++++......@@@@@@@@@   ",
"            ......++++++++++++++++++++++++++++++++++++++++++++++++++++++++++++......@@@@@@@@@   ",
"            ......++++++++++++++++++++++++++++++++++++++++++++++++++++++++++++......@@@@@@@@@   ",
"            ......++++++++++++++++++++++++++++++++++++++++++++++++++++++++++++......            ",
"            ......++++++++++++++++++++++++++++++++++++++++++++++++++++++++++++......            ",
"            ......++++++++++++++++++++++++++++++++++++++++++++++++++++++++++++......            ",
"@@@@@@      ......++++++++++++++++++++++++++++++++++++++++++++++++++++++++++++......            ",
"@@@@@@      ......++++++++++++++++++++++++++++++++++++++++++++++++++++++++++++......            ",
"@@@@@@      ......++++++++++++++++++++++++++++++++++++++++++++++++++++++++++++......            ",
"@@@@@@      ......+++++++++++++++++++++++++++++++++++++++++++++++++++......+++......         @@@",
"@@@@@@      ......+++++++++++++++++++++++++++++++++++++++++++++++++++......+++......         @@@",
"@@@@@@      ......+++++++++++++++++++++++++++++++++++++++++++++++++++......+++......         @@@",
"            ......+++++++++++++++++++++++++++++++++++++++++++++++++++......+++......         @@@",
"            ......+++++++++++++++++++++++++++++++++++++++++++++++++++......+++......         @@@",
"            ......+++++++++++++++++++++++++++++++++++++++++++++++++++......+++......         @@@",
"            ......++++++++++++++++++++++++++++++++++++++++++++++++.........+++......            ",
"            ......++++++++++++++++++++++++++++++++++++++++++++++++.........+++......            ",
"            ......++++++++++++++++++++++++++++++++++++++++++++++++.........+++......            ",
"         @@@......+++++++++++++++++++++++++++++++++++++++++++++++++++......+++......            ",
"         @@@......+++++++++++++++++++++++++++++++++++++++++++++++++++......+++......            ",
"         @@@......+++++++++++++++++++++++++++++++++++++++++++++++++++......+++......            ",
"         @@@......++++++++++++++++++++++++++++++++++++++++++++++++++++++++++++......            ",
"         @@@......++++++++++++++++++++++++++++++++++++++++++++++++++++++++++++......            ",
"         @@@......++++++++++++++++++++++++++++++++++++++++++++++++++++++++++++......            ",
"            ......++++++++++++++++++++++++++++++++++++++++++++++++++++++++++++......            ",
"            ......++++++++++++++++++++++++++++++++++++++++++++++++++++++++++++......            ",
"            ......++++++++++++++++++++++++++++++++++++++++++++++++++++++++++++......            ",
"            ......++++++++++++++++++++++++++++++++++++++++++++++++++++++++++++......            ",
"            ......++++++++++++++++++++++++++++++++++++++++++++++++++++++++++++......            ",
"            ......++++++++++++++++++++++++++++++++++++++++++++++++++++++++++++......            ",
"            ......++++++++++++++++++++++++++++++++++++++++++++++++++++++++++++......            ",
"            ......++++++++++++++++++++++++++++++++++++++++++++++++++++++++++++......            ",
"            ......++++++++++++++++++++++++++++++++++++++++++++++++++++++++++++......            ",
"            ......++++++++++++++++++++++++++++++++++++++++++++++++++++++++++++......            ",
"            ......++++++++++++++++++++++++++++++++++++++++++++++++++++++++++++......            ",
"            ......++++++++++++++++++++++++++++++++++++++++++++++++++++++++++++......            ",
"            ......++++++++++++++++++++++++++++++++++++++++++++++++++++++++++++......            ",
"            ......++++++++++++++++++++++++++++++++++++++++++++++++++++++++++++......            ",
"            ......++++++++++++++++++++++++++++++++++++++++++++++++++++++++++++......            ",
"            ......++++++++++++++++++++++++++++++++++++++++++++++++++++++++++++......            ",
"            ......++++++++++++++++++++++++++++++++++++++++++++++++++++++++++++......            ",
"            ......++++++++++++++++++++++++++++++++++++++++++++++++++++++++++++......            ",
"            ......++++++++++++++++++++++++++++++++++++++++++++++++++++++++++++......            ",
"            ......++++++++++++++++++++++++++++++++++++++++++++++++++++++++++++......            ",
"            ......++++++++++++++++++++++++++++++++++++++++++++++++++++++++++++......            ",
"            ......++++++++++++++++++++++++++++++++++++++++++++++++++++++++++++......            ",
"            ......++++++++++++++++++++++++++++++++++++++++++++++++++++++++++++......            ",
"            ......++++++++++++++++++++++++++++++++++++++++++++++++++++++++++++......            ",
"         ######...++++++++++++++++++++++++++++++++++++++++++++++++++++++++++++......            ",
"         ######...++++++++++++++++++++++++++++++++++++++++++++++++++++++++++++......            ",
"         ######...++++++++++++++++++++++++++++++++++++++++++++++++++++++++++++......            ",
"         ######...++++++++++++++++++++++++++++++++++++++++++++++++++++++++++++......            ",
"         ######...++++++++++++++++++++++++++++++++++++++++++++++++++++++++++++......            ",
"         ######...++++++++++++++++++++++++++++++++++++++++++++++++++++++++++++......            ",
"   #########......++++++++++++++++++++++++++++++++++++++++++++++++++++++++++++......   ######   ",
"   #########......++++++++++++++++++++++++++++++++++++++++++++++++++++++++++++......   ######   ",
"   #########......++++++++++++++++++++++++++++++++++++++++++++++++++++++++++++......   ######   ",
"   #########......++++++++++++++++++++++++++++++++++++#########+++++++++++++++......   ######   ",
"   #########......++++++++++++++++++++++++++++++++++++#########+++++++++++++++......   ######   ",
"   #########......++++++++++++++++++++++++++++++++++++#########+++++++++++++++......   ######   "};
