/* XPM */
static char * wall_xpm[] = {
"96 96 23 1",
" 	c #FF6B00",
".	c #FF7628",
"+	c #FF8F54",
"@	c #FEB07D",
"#	c #FEB380",
"$	c #FF7524",
"%	c #FF8E53",
"&	c #FF7525",
"*	c #FF8F53",
"=	c #FF7E39",
"-	c #FF945A",
";	c #FF945B",
">	c #FEA16C",
",	c #FEAE7B",
"'	c #FF6A00",
")	c #FF6C00",
"!	c #FF6900",
"~	c #FF6D00",
"{	c #FF8D51",
"]	c #FF8D52",
"^	c #FF9359",
"/	c #FEA06A",
"(	c #FEB27E",
"                         .+@#@+.                                .+@#@+.                         ",
"                         .+@#@+.                                .+@#@+.                         ",
"                         .+@#@+.                                .+@#@+.                         ",
"                         .+@#@+.                                .+@#@+.                         ",
"                         .+@#@+.                                .+@#@+.                         ",
"                         .+@#@+.                                .+@#@+.                         ",
"                         .+@#@+.                                .+@#@+.                         ",
"                         .+@#@+.                                .+@#@+.                         ",
"                         $%@#@%$                                $%@#@%$                         ",
"                         &*@#@*&                                &*@#@*&                         ",
".......................$&=-###-=&$............................$&=-###-=&$.......................",
"+++++++++++++++%%%+++++%*;>###>;*%++++++++++++++++++++++++++++%*;>###>;*%+++++%%%+++++++++++++++",
"@@@@@@@@@@@@@@@,,,@@@@@@@#######@@@@@@@@@@@@@@@@@@@@@@@@@@@@@@@@#######@@@@@@@,,,@@@@@@@@@@@@@@@",
"################################################################################################",
"@@@@@@@@@@@@@#######@@@@@@@,,,@@@@@@@@@@@@@@@@@@@@@@@@@@@@@@@@@@@@,,,@@@@@@@#######@@@@@@@@@@@@@",
"+++++++++++%*;>###>;*%+++++%%%++++++++++++++++++++++++++++++++++++%%%+++++%*;>###>;*%+++++++++++",
"...........$&=-###-=&$....................................................$&=-###-=&$...........",
"             &*@#@*&                                                        &*@#@*&             ",
"             $%@#@%$                                                        $%@#@%$             ",
"             .+@#@+.                                                        .+@#@+.             ",
"             $%@#@%$                                                        $%@#@%$             ",
"             &*@#@*&                                                        &*@#@*&             ",
"...........$&=-###-=&$....................................................$&=-###-=&$...........",
"+++++++++++%*;>###>;*%+++++%%%++++++++++++++++++++++++++++++++++++%%%+++++%*;>###>;*%+++++++++++",
"@@@@@@@@@@@@@#######@@@@@@@,,,@@@@@@@@@@@@@@@@@@@@@@@@@@@@@@@@@@@@,,,@@@@@@@#######@@@@@@@@@@@@@",
"################################################################################################",
"@@@@@@@@@@@@@@@,,,@@@@@@@#######@@@@@@@@@@@@@@@@@@@@@@@@@@@@@@@@#######@@@@@@@,,,@@@@@@@@@@@@@@@",
"+++++++++++++++%%%+++++%*;>###>;*%++++++++++++++++++++++++++++%*;>###>;*%+++++%%%+++++++++++++++",
".......................$&=-###-=&$............................$&=-###-=&$.......................",
"                         &*@#@*&                                &*@#@*&                         ",
"                         $%@#@%$                                $%@#@%$                         ",
"                         .+@#@+.                                .+@#@+.                         ",
"                         .+@#@+.                                .+@#@+.                         ",
"                         .+@#@+.                                .+@#@+.                         ",
"                         .+@#@+.                                .+@#@+.                         ",
"                         $%@#@%$                                $%@#@%$                         ",
"                         &*@#@*&                                &*@#@*&                         ",
".......................$&=-###-=&$............................$&=-###-=&$.......................",
"+++++++++++++++%%%+++++%*;>###>;*%++++++++++++++++++++++++++++%*;>###>;*%+++++%%%+++++++++++++++",
"@@@@@@@@@@@@@@@,,,@@@@@@@#######@@@@@@@@@@@@@@@@@@@@@@@@@@@@@@@@#######@@@@@@@,,,@@@@@@@@@@@@@@@",
"################################################################################################",
"@@@@@@@@@@@@@#######@@@@@@@,,,@@@@@@@@@@@@@@@@@@@@@@@@@@@@@@@@@@@@,,,@@@@@@@#######@@@@@@@@@@@@@",
"+++++++++++%*;>###>;*%+++++%%%++++++++++++++++++++++++++++++++++++%%%+++++%*;>###>;*%+++++++++++",
"...........$&=-###-=&$....................................................$&=-###-=&$...........",
"             &*@#@*&''))))))))))))))))))))))))))))))))))))))))))))))))))))''&*@#@*&             ",
"             $%@#@%$'!                                                    !'$%@#@%$             ",
"             .+@#@+.) ~~~~~~~~~~~~~~~~~~~~~~~~~~~~~~~~~~~~~~~~~~~~~~~~~~~~ ).+@#@+.             ",
"             $%@#@%$'!                                                    !'$%@#@%$             ",
"             &*@#@*&''))))))))))))))))))))))))))))))))))))))))))))))))))))''&*@#@*&             ",
"...........$&=-###-=&$....................................................$&=-###-=&$...........",
"+++++++++++%*;>###>;*%+++++%%%++++++++++++++++++++++++++++++++++++%%%+++++%*;>###>;*%+++++++++++",
"@@@@@@@@@@@@@#######@@@@@@@,,,@@@@@@@@@@@@@@@@@@@@@@@@@@@@@@@@@@@@,,,@@@@@@@#######@@@@@@@@@@@@@",
"################################################################################################",
"@@@@@@@@@@@@@@@,,,@@@@@@@#######@@@@@@@@@@@@@@@@@@@@@@@@@@@@@@@@#######@@@@@@@,,,@@@@@@@@@@@@@@@",
"+++++++++++++++%%%+++++%*;>###>;*%++++++++++++++++++++++++++++%*;>###>;*%+++++%%%+++++++++++++++",
".......................$&=-###-=&$............................$&=-###-=&$.......................",
"                         &*@#@*&''))))))))))))))))))))))))))))''&*@#@*&                         ",
"                         $%@#@%$'!                            !'$%@#@%$                         ",
"                         .+@#@+.) ~~~~~~~~~~~~~~~~~~~~~~~~~~~~ ).+@#@+.                         ",
"                         .+@#@+.) ~~~~~~~~~~~~~~~~~~~~~~~~~~~~ ).+@#@+.                         ",
"                         .+@#@+.) ~~~~~~~~~~~~~~~~~~~~~~~~~~~~ ).+@#@+.                         ",
"                         .+@#@+.) ~~~~~~~~~~~~~~~~~~~~~~~~~~~~ ).+@#@+.                         ",
"                         $%@#@%$'!                            !'$%@#@%$                         ",
"                         &*@#@*&''))))))))))))))))))))))))))))''&*@#@*&                         ",
".......................$&=-###-=&$............................$&=-###-=&$.......................",
"+++++++++++++++%%%+++++%*;>###>;*%++++++++++++++++++++++++++++%*;>###>;*%+++++%%%+++++++++++++++",
"@@@@@@@@@@@@@@@,,,@@@@@@@#######@@@@@@@@@@@@@@@@@@@@@@@@@@@@@@@@#######@@@@@@@,,,@@@@@@@@@@@@@@@",
"################################################################################################",
"@@@@@@@@@@@@@#######@@@@@@@,,,@@@@@@@@@@@@@@@@@@@@@@@@@@@@@@@@@@@@,,,@@@@@@@#######@@@@@@@@@@@@@",
"+++++++++++%*;>###>;*%+++++%%%++++++++++++++++++++++++++++++++++++%%%+++++%*;>###>;*%+++++++++++",
"...........$&=-###-=&$....................................................$&=-###-=&$...........",
"             &*@#@*&                                                        &*@#@*&             ",
"             $%@#@%$                                                        $%@#@%$             ",
"             .+@#@+.                                                        .+@#@+.             ",
"             $%@#@%$                                                        $%@#@%$             ",
"             &*@#@*&                                                        &*@#@*&             ",
"...........$&=-###-=&$....................................................$&=-###-=&$...........",
"+++++++++++%*;>###>;*%+++++%%%++++++++++++++++++++++++++++++++++++%%%+++++%*;>###>;*%+++++++++++",
"@@@@@@@@@@@@@#######@@@@@@@,,,@@@@@@@@@@@@@@@@@@@@@@@@@@@@@@@@@@@@,,,@@@@@@@#######@@@@@@@@@@@@@",
"################################################################################################",
"@@@@@@@@@@@@@@@,,,@@@@@@@#######@@@@@@@@@@@@@@@@@@@@@@@@@@@@@@@@#######@@@@@@@,,,@@@@@@@@@@@@@@@",
"+++++++++++++++%%%+++++%*;>###>;*%++++++++++++++++++++++++++++%*;>###>;*%+++++%%%+++++++++++++++",
".......................$&=-###-=&$............................$&=-###-=&$.......................",
"                         &*@#@*&                                &*@#@*&                         ",
"                         $%@#@%$                                $%@#@%$                         ",
"                         .+@#@+.                                .+@#@+.                         ",
"                         .+@#@+.                                .+@#@+.                         ",
"                         .+@#@+.                                .+@#@+.                         ",
"                         .+@#@+.                                .+@#@+.                         ",
"                         $%@#@%$                                $%@#@%$                         ",
"                         &*@#@*&                                &*@#@*&                         ",
".......................$&=-###-=&$............................$&=-###-=&$.......................",
"%%%%%%%%%%%%%%%%%%%%%%%{]^/###/^]{%%%%%%%%%%%%%%%%%%%%%%%%%%%%{]^/###/^]{%%%%%%%%%%%%%%%%%%%%%%%",
",,,,,,,,,,,,,,,,,,,,,,,,,(#####(,,,,,,,,,,,,,,,,,,,,,,,,,,,,,,,,(#####(,,,,,,,,,,,,,,,,,,,,,,,,,",
"################################################################################################",
"################################################################################################"};
