/* XPM */
static char * wall_tl_xpm[] = {
"96 96 43 1",
" 	c #AD5617",
".	c #BC6832",
"+	c #D18454",
"@	c #EDA472",
"#	c #FEB17E",
"$	c #B9652F",
"%	c #CF8050",
"&	c #EA9D6B",
"*	c #AE571A",
"=	c #CA7645",
"-	c #E68E5B",
";	c #FDAC79",
">	c #AC5517",
",	c #C46833",
"'	c #E37A42",
")	c #F8864C",
"!	c #FF8B4F",
"~	c #FF8A4F",
"{	c #FF894E",
"]	c #FF8A4E",
"^	c #FF8F55",
"/	c #FEA36F",
"(	c #C25B1A",
"_	c #E56821",
":	c #F97125",
"<	c #FF7426",
"[	c #FF7222",
"}	c #FF7323",
"|	c #FF7B36",
"1	c #FF9056",
"2	c #D75C04",
"3	c #FF6B00",
"4	c #FF8B50",
"5	c #FF6800",
"6	c #FF6A00",
"7	c #FA6800",
"8	c #EC6300",
"9	c #FF6900",
"0	c #FD6900",
"a	c #F56500",
"b	c #FE6B00",
"c	c #FF7322",
"d	c #FEA672",
"    .+@##################################################################################@+.    ",
"    $%&##################################################################################&%$    ",
"    *=-;################################################################################;-=*    ",
"   > ,')!!~~~~~~~~~~~~~{]^/###/^]{~~~~~~~~~~~~~~~~~~~~~~~~~~~~{]^/###/^]{~~~~~~~~~~~~~!!)', >   ",
".$*  (_:<<<<<<<<<<<<<<<[}|1###1|}[<<<<<<<<<<<<<<<<<<<<<<<<<<<<[}|1###1|}[<<<<<<<<<<<<<<<:_(  *$.",
"+%=,(23333333333333333333}4###4}33333333333333333333333333333333}4###4}55666666666666666782(,=%+",
"@&-'_33333333333333333333[!###![33333333333333333333333333333333[!###![559999999999999990a8_'-&@",
"##;):33333333333333333333<4###4<33333333333333333333333333333333<4###4<69333333333333333b07:);##",
"###]c33333333333333333333[!###![33333333333333333333333333333333[!###![55999999999999999955c]###",
"###]}33333333333333333333}4###4}33333333333333333333333333333333}4###4}55666666666666666659}]###",
"###^|}[<<<<<<<<<<<<<<<<[}|1###1|}[<<<<<<<<<<<<<<<<<<<<<<<<<<<<[}|1###1|}[<<<<<<<<<<<<<<<<[}|^###",
"###/14!44444444!~!44444!41d###d14!4444444444444444444444444444!41d###d14!44444!~!44444444!41/###",
"################################################################################################",
"################################################################################################",
"################################################################################################",
"###/14!4444!41d###d14!44444!~!444444444444444444444444444444444444!~!44444!41d###d14!4444!41/###",
"###^|}[<<<<[}|1###1|}[<<<<<<<<<<<<<<<<<<<<<<<<<<<<<<<<<<<<<<<<<<<<<<<<<<<<[}|1###1|}[<<<<[}|^###",
"###]}55666655}4###4}55666666666666666666666666666666666666666666666666666655}4###4}55666655}]###",
"###{[55999955[!###![55999999999999999999999999999999999999999999999999999955[!###![55999955[{###",
"###~<69333396<4###4<69333333333333333333333333333333333333333333333333333396<4###4<69333396<~###",
"###{[55999955[!###![55999999999999999999999999999999999999999999999999999955[!###![55999955[{###",
"###]}55666655}4###4}55666666666666666666666666666666666666666666666666666655}4###4}55666655}]###",
"###^|}[<<<<[}|1###1|}[<<<<<<<<<<<<<<<<<<<<<<<<<<<<<<<<<<<<<<<<<<<<<<<<<<<<[}|1###1|}[<<<<[}|^###",
"###/14!4444!41d###d14!44444!~!444444444444444444444444444444444444!~!44444!41d###d14!4444!41/###",
"################################################################################################",
"################################################################################################",
"################################################################################################",
"###/14!44444444!~!44444!41d###d14!4444444444444444444444444444!41d###d14!44444!~!44444444!41/###",
"###^|}[<<<<<<<<<<<<<<<<[}|1###1|}[<<<<<<<<<<<<<<<<<<<<<<<<<<<<[}|1###1|}[<<<<<<<<<<<<<<<<[}|^###",
"###]}55666666666666666655}4###4}55666666666666666666666666666655}4###4}55666666666666666655}]###",
"###{[55999999999999999955[!###![55999999999999999999999999999955[!###![55999999999999999955[{###",
"###~<69333333333333333396<4###4<69333333333333333333333333333396<4###4<69333333333333333396<~###",
"###~<69333333333333333396<4###4<69333333333333333333333333333396<4###4<69333333333333333396<~###",
"###~<69333333333333333396<4###4<69333333333333333333333333333396<4###4<69333333333333333396<~###",
"###~<69333333333333333396<4###4<69333333333333333333333333333396<4###4<69333333333333333396<~###",
"###{[55999999999999999955[!###![55999999999999999999999999999955[!###![55999999999999999955[{###",
"###]}55666666666666666655}4###4}55666666666666666666666666666655}4###4}55666666666666666655}]###",
"###^|}[<<<<<<<<<<<<<<<<[}|1###1|}[<<<<<<<<<<<<<<<<<<<<<<<<<<<<[}|1###1|}[<<<<<<<<<<<<<<<<[}|^###",
"###/14!44444444!~!44444!41d###d14!4444444444444444444444444444!41d###d14!44444!~!44444444!41/###",
"################################################################################################",
"################################################################################################",
"################################################################################################",
"###/14!4444!41d###d14!44444!~!444444444444444444444444444444444444!~!44444!41d###d14!4444!41/###",
"###^|}[<<<<[}|1###1|}[<<<<<<<<<<<<<<<<<<<<<<<<<<<<<<<<<<<<<<<<<<<<<<<<<<<<[}|1###1|}[<<<<[}|^###",
"###]}55666655}4###4}55666666666666666666666666666666666666666666666666666655}4###4}55666655}]###",
"###{[55999955[!###![55999999999999999999999999999999999999999999999999999955[!###![55999955[{###",
"###~<69333396<4###4<69333333333333333333333333333333333333333333333333333396<4###4<69333396<~###",
"###{[55999955[!###![55999999999999999999999999999999999999999999999999999955[!###![55999955[{###",
"###]}55666655}4###4}55666666666666666666666666666666666666666666666666666655}4###4}55666655}]###",
"###^|}[<<<<[}|1###1|}[<<<<<<<<<<<<<<<<<<<<<<<<<<<<<<<<<<<<<<<<<<<<<<<<<<<<[}|1###1|}[<<<<[}|^###",
"###/14!4444!41d###d14!44444!~!444444444444444444444444444444444444!~!44444!41d###d14!4444!41/###",
"################################################################################################",
"################################################################################################",
"################################################################################################",
"###/14!44444444!~!44444!41d###d14!4444444444444444444444444444!41d###d14!44444!~!44444444!41/###",
"###^|}[<<<<<<<<<<<<<<<<[}|1###1|}[<<<<<<<<<<<<<<<<<<<<<<<<<<<<[}|1###1|}[<<<<<<<<<<<<<<<<[}|^###",
"###]}55666666666666666655}4###4}55666666666666666666666666666655}4###4}55666666666666666655}]###",
"###{[55999999999999999955[!###![55999999999999999999999999999955[!###![55999999999999999955[{###",
"###~<69333333333333333396<4###4<69333333333333333333333333333396<4###4<69333333333333333396<~###",
"###~<69333333333333333396<4###4<69333333333333333333333333333396<4###4<69333333333333333396<~###",
"###~<69333333333333333396<4###4<69333333333333333333333333333396<4###4<69333333333333333396<~###",
"###~<69333333333333333396<4###4<69333333333333333333333333333396<4###4<69333333333333333396<~###",
"###{[55999999999999999955[!###![55999999999999999999999999999955[!###![55999999999999999955[{###",
"###]}55666666666666666655}4###4}55666666666666666666666666666655}4###4}55666666666666666655}]###",
"###^|}[<<<<<<<<<<<<<<<<[}|1###1|}[<<<<<<<<<<<<<<<<<<<<<<<<<<<<[}|1###1|}[<<<<<<<<<<<<<<<<[}|^###",
"###/14!44444444!~!44444!41d###d14!4444444444444444444444444444!41d###d14!44444!~!44444444!41/###",
"################################################################################################",
"################################################################################################",
"################################################################################################",
"###/14!4444!41d###d14!44444!~!444444444444444444444444444444444444!~!44444!41d###d14!4444!41/###",
"###^|}[<<<<[}|1###1|}[<<<<<<<<<<<<<<<<<<<<<<<<<<<<<<<<<<<<<<<<<<<<<<<<<<<<[}|1###1|}[<<<<[}|^###",
"###]}55666655}4###4}55666666666666666666666666666666666666666666666666666655}4###4}55666655}]###",
"###{[55999955[!###![55999999999999999999999999999999999999999999999999999955[!###![55999955[{###",
"###~<69333396<4###4<69333333333333333333333333333333333333333333333333333396<4###4<69333396<~###",
"###{[55999955[!###![55999999999999999999999999999999999999999999999999999955[!###![55999955[{###",
"###]}55666655}4###4}55666666666666666666666666666666666666666666666666666655}4###4}55666655}]###",
"###^|}[<<<<[}|1###1|}[<<<<<<<<<<<<<<<<<<<<<<<<<<<<<<<<<<<<<<<<<<<<<<<<<<<<[}|1###1|}[<<<<[}|^###",
"###/14!4444!41d###d14!44444!~!444444444444444444444444444444444444!~!44444!41d###d14!4444!41/###",
"################################################################################################",
"################################################################################################",
"################################################################################################",
"###/14!44444444!~!44444!41d###d14!4444444444444444444444444444!41d###d14!44444!~!44444444!41/###",
"###^|}[<<<<<<<<<<<<<<<<[}|1###1|}[<<<<<<<<<<<<<<<<<<<<<<<<<<<<[}|1###1|}[<<<<<<<<<<<<<<<<[}|^###",
"###]}55666666666666666655}4###4}55666666666666666666666666666655}4###4}55666666666666666655}]###",
"###{[55999999999999999955[!###![55999999999999999999999999999955[!###![55999999999999999955[{###",
"###~<69333333333333333396<4###4<69333333333333333333333333333396<4###4<69333333333333333396<~###",
"###!<69333333333333333396<4###4<69333333333333333333333333333396<4###4<69333333333333333396<!###",
"###!<69333333333333333396<4###4<69333333333333333333333333333396<4###4<69333333333333333396<!###",
"##;):70b33333333333333396<4###4<69333333333333333333333333333396<4###4<69333333333333333b07:);##",
"@&-'_8a099999999999999955[!###![55999999999999999999999999999955[!###![559999999999999990a8_'-&@",
"+%=,(28766666666666666655}4###4}55666666666666666666666666666655}4###4}55666666666666666782(,=%+",
".$*  (_:<<<<<<<<<<<<<<<[}|1###1|}[<<<<<<<<<<<<<<<<<<<<<<<<<<<<[}|1###1|}[<<<<<<<<<<<<<<<:_(  *$.",
"   > ,')!!~~~~~~~~~~~~~{]^/###/^]{~~~~~~~~~~~~~~~~~~~~~~~~~~~~{]^/###/^]{~~~~~~~~~~~~~!!)', >   ",
"    *=-;################################################################################;-=*    ",
"    $%&##################################################################################&%$    ",
"    .+@##################################################################################@+.    "};
