/* XPM */
static char * wall_bl_xpm[] = {
"64 64 19 1",
" 	c #FF6B00",
".	c #FF6E0F",
"+	c #FF894C",
"@	c #FEB17E",
"#	c #FF6D0D",
"$	c #FF884B",
"%	c #FF7017",
"&	c #FF8A4C",
"*	c #FF8A4D",
"=	c #FE9A63",
"-	c #FEB380",
";	c #FEAF7C",
">	c #FF6F17",
",	c #FF6A00",
"'	c #FF6C00",
")	c #FF6D00",
"!	c #FF8849",
"~	c #FE9962",
"{	c #FEB07D",
"                .+@@+.                    .+@@+.                ",
"                .+@@+.                    .+@@+.                ",
"                .+@@+.                    .+@@+.                ",
"                .+@@+.                    .+@@+.                ",
"                .+@@+.                    .+@@+.                ",
"                #$@@$#                    #$@@$#                ",
"...............#%&@@&%#..................#%&@@&%#...............",
"++++++++++$$+++$*=--=*$++++++++++++++++++$*=--=*$+++$$++++++++++",
"@@@@@@@@@@;;@@@@@----@@@@@@@@@@@@@@@@@@@@@@----@@@@@;;@@@@@@@@@@",
"@@@@@@@@@----@@@@@;;@@@@@@@@@@@@@@@@@@@@@@@@;;@@@@@----@@@@@@@@@",
"+++++++$*=--=*$+++$$++++++++++++++++++++++++$$+++$*=--=*$+++++++",
".......#%&@@&%#..................................#%&@@&%#.......",
"        #$@@$#                                    #$@@$#        ",
"        #$@@$#                                    #$@@$#        ",
".......#%&@@&%#..................................#%&@@&%#.......",
"+++++++$*=--=*$+++$$++++++++++++++++++++++++$$+++$*=--=*$+++++++",
"@@@@@@@@@----@@@@@;;@@@@@@@@@@@@@@@@@@@@@@@@;;@@@@@----@@@@@@@@@",
"@@@@@@@@@@;;@@@@@----@@@@@@@@@@@@@@@@@@@@@@----@@@@@;;@@@@@@@@@@",
"++++++++++$$+++$*=--=*$++++++++++++++++++$*=--=*$+++$$++++++++++",
"...............#%&@@&%#..................#%&@@&%#...............",
"                #$@@$#                    #$@@$#                ",
"                .+@@+.                    .+@@+.                ",
"                .+@@+.                    .+@@+.                ",
"                #$@@$#                    #$@@$#                ",
"...............#%&@@&%#..................#%&@@&%#...............",
"++++++++++$$+++$*=--=*$++++++++++++++++++$*=--=*$+++$$++++++++++",
"@@@@@@@@@@;;@@@@@----@@@@@@@@@@@@@@@@@@@@@@----@@@@@;;@@@@@@@@@@",
"@@@@@@@@@----@@@@@;;@@@@@@@@@@@@@@@@@@@@@@@@;;@@@@@----@@@@@@@@@",
"+++++++$*=--=*$+++$$++++++++++++++++++++++++$$+++$*=--=*$+++++++",
".......#%&@@&>#..................................#>&@@&%#.......",
"        #$@@$#,'''''''''''''''''''''''''''''''''',#$@@$#        ",
"        #$@@$#,'''''''''''''''''''''''''''''''''',#$@@$#        ",
".......#%&@@&>#..................................#>&@@&%#.......",
"+++++++$*=--=*$+++$$++++++++++++++++++++++++$$+++$*=--=*$+++++++",
"@@@@@@@@@----@@@@@;;@@@@@@@@@@@@@@@@@@@@@@@@;;@@@@@----@@@@@@@@@",
"@@@@@@@@@@;;@@@@@----@@@@@@@@@@@@@@@@@@@@@@----@@@@@;;@@@@@@@@@@",
"++++++++++$$+++$*=--=*$++++++++++++++++++$*=--=*$+++$$++++++++++",
"...............#%&@@&>#..................#>&@@&%#...............",
"                #$@@$#,'''''''''''''''''',#$@@$#                ",
"                .+@@+.'))))))))))))))))))'.+@@+.                ",
"                .+@@+.'))))))))))))))))))'.+@@+.                ",
"                #$@@$#,'''''''''''''''''',#$@@$#                ",
"...............#%&@@&>#..................#>&@@&%#...............",
"++++++++++$$+++$*=--=*$++++++++++++++++++$*=--=*$+++$$++++++++++",
"@@@@@@@@@@;;@@@@@----@@@@@@@@@@@@@@@@@@@@@@----@@@@@;;@@@@@@@@@@",
"@@@@@@@@@----@@@@@;;@@@@@@@@@@@@@@@@@@@@@@@@;;@@@@@----@@@@@@@@@",
"+++++++$*=--=*$+++$$++++++++++++++++++++++++$$+++$*=--=*$+++++++",
".......#%&@@&%#..................................#%&@@&%#.......",
"        #$@@$#                                    #$@@$#        ",
"        #$@@$#                                    #$@@$#        ",
".......#%&@@&%#..................................#%&@@&%#.......",
"+++++++$*=--=*$+++$$++++++++++++++++++++++++$$+++$*=--=*$+++++++",
"@@@@@@@@@----@@@@@;;@@@@@@@@@@@@@@@@@@@@@@@@;;@@@@@----@@@@@@@@@",
"@@@@@@@@@@;;@@@@@----@@@@@@@@@@@@@@@@@@@@@@----@@@@@;;@@@@@@@@@@",
"++++++++++$$+++$*=--=*$++++++++++++++++++$*=--=*$+++$$++++++++++",
"...............#%&@@&%#..................#%&@@&%#...............",
"                #$@@$#                    #$@@$#                ",
"                .+@@+.                    .+@@+.                ",
"                .+@@+.                    .+@@+.                ",
"                #$@@$#                    #$@@$#                ",
"...............#%&@@&%#..................#%&@@&%#...............",
"$$$$$$$$$$$$$$$!+~--~+!$$$$$$$$$$$$$$$$$$!+~--~+!$$$$$$$$$$$$$$$",
";;;;;;;;;;;;;;;;{----{;;;;;;;;;;;;;;;;;;;;{----{;;;;;;;;;;;;;;;;",
"----------------------------------------------------------------"};
